<svg width="433" height="204" viewBox="0 0 433 204" fill="none" xmlns="http://www.w3.org/2000/svg">
<path d="M49.5156 64.1797V72H6.96875V1.45312H15.9375V64.1797H49.5156ZM97.6953 58.5469C96.8568 60.3333 95.7995 62.1016 94.5234 63.8516C93.2474 65.5651 91.7526 67.0599 90.0391 68.3359C88.3255 69.5755 86.375 70.5964 84.1875 71.3984C82.0365 72.1641 79.6302 72.5469 76.9688 72.5469C73.7604 72.5469 70.7161 71.9271 67.8359 70.6875C64.9557 69.4115 62.4401 67.6432 60.2891 65.3828C58.1745 63.0859 56.4974 60.3698 55.2578 57.2344C54.0547 54.099 53.4531 50.6172 53.4531 46.7891C53.4531 42.9974 54.0547 39.5339 55.2578 36.3984C56.4974 33.263 58.1562 30.5651 60.2344 28.3047C62.349 26.0078 64.8099 24.2214 67.6172 22.9453C70.4245 21.6693 73.3594 21.0312 76.4219 21.0312C79.4844 21.0312 82.3646 21.6328 85.0625 22.8359C87.7969 24.0391 90.1667 25.7526 92.1719 27.9766C94.2135 30.1641 95.8177 32.8073 96.9844 35.9062C98.1875 39.0052 98.7891 42.4505 98.7891 46.2422C98.7891 46.9714 98.7526 47.6094 98.6797 48.1562C98.6068 48.6667 98.5339 49.1042 98.4609 49.4688C98.388 49.9062 98.3151 50.3255 98.2422 50.7266H62.4219C62.5677 52.513 63.0599 54.263 63.8984 55.9766C64.7734 57.6901 65.849 59.1849 67.125 60.4609C68.4375 61.737 69.9505 62.776 71.6641 63.5781C73.4141 64.3438 75.1823 64.7266 76.9688 64.7266C78.5365 64.7266 79.9219 64.5078 81.125 64.0703C82.3646 63.5964 83.4948 63.0677 84.5156 62.4844C85.5365 61.901 86.375 61.263 87.0312 60.5703C87.724 59.8411 88.2891 59.1667 88.7266 58.5469H97.6953ZM76.4219 28.9062C74.7083 28.9062 73.0677 29.2708 71.5 30C69.9688 30.7292 68.5651 31.7318 67.2891 33.0078C66.0495 34.2839 64.9922 35.8151 64.1172 37.6016C63.2786 39.388 62.7135 41.3385 62.4219 43.4531H89.8203C89.237 38.9688 87.6875 35.4323 85.1719 32.8438C82.6927 30.2188 79.776 28.9062 76.4219 28.9062ZM114.977 8.17969H122.25V21.5781H133.461V29.4531H122.25V55.7578C122.25 58.6016 123.016 60.8073 124.547 62.375C126.078 63.9427 128.12 64.7266 130.672 64.7266C131.401 64.7266 132.076 64.6536 132.695 64.5078C132.987 64.4349 133.242 64.3255 133.461 64.1797V71.4531C133.096 71.6719 132.695 71.8542 132.258 72C131.273 72.3646 129.997 72.5469 128.43 72.5469C126.497 72.5469 124.656 72.1458 122.906 71.3438C121.156 70.5052 119.607 69.3568 118.258 67.8984C116.909 66.4401 115.833 64.6901 115.031 62.6484C114.266 60.6068 113.883 58.3099 113.883 55.7578V29.4531H104.914V21.5781H108.852C112.971 21.5781 115.013 19.5365 114.977 15.4531V8.17969ZM148.062 12.0625C146.349 12.0625 144.982 11.5703 143.961 10.5859C142.977 9.5651 142.484 8.19792 142.484 6.48438C142.484 4.77083 142.977 3.42188 143.961 2.4375C144.982 1.41667 146.349 0.90625 148.062 0.90625C149.776 0.90625 151.125 1.41667 152.109 2.4375C153.13 3.42188 153.641 4.77083 153.641 6.48438C153.641 9.18229 153.167 11.5156 152.219 13.4844C151.307 15.4531 150.305 17.0755 149.211 18.3516C147.862 19.8464 146.367 21.1224 144.727 22.1797L143.578 20.4844C144.307 19.7552 144.982 18.9714 145.602 18.1328C146.112 17.4036 146.604 16.5286 147.078 15.5078C147.589 14.487 147.917 13.3385 148.062 12.0625ZM196.789 57.4531C196.789 59.5312 196.37 61.4818 195.531 63.3047C194.729 65.1276 193.581 66.7318 192.086 68.1172C190.591 69.5026 188.786 70.5964 186.672 71.3984C184.557 72.1641 182.151 72.5469 179.453 72.5469C173.839 72.5469 169.427 71.0521 166.219 68.0625C163.01 65.0729 161.26 61.3542 160.969 56.9062H169.391C169.682 59.1302 170.648 60.9896 172.289 62.4844C173.93 63.9792 176.318 64.7266 179.453 64.7266C182.297 64.7266 184.503 63.9974 186.07 62.5391C187.638 61.0807 188.422 59.3854 188.422 57.4531C188.422 55.5938 187.766 54.1901 186.453 53.2422C185.141 52.2943 183.518 51.5469 181.586 51C179.654 50.4531 177.539 49.9427 175.242 49.4688C172.982 48.9583 170.867 48.2292 168.898 47.2812C166.966 46.2969 165.344 44.9115 164.031 43.125C162.719 41.3021 162.062 38.7865 162.062 35.5781C162.062 33.6458 162.464 31.8047 163.266 30.0547C164.104 28.3047 165.253 26.7552 166.711 25.4062C168.169 24.0573 169.919 23 171.961 22.2344C174.039 21.4323 176.354 21.0312 178.906 21.0312C184.266 21.0312 188.422 22.4349 191.375 25.2422C194.328 28.0495 195.951 31.6953 196.242 36.1797H187.82C187.529 33.9557 186.672 32.1875 185.25 30.875C183.828 29.5625 181.714 28.9062 178.906 28.9062C176.354 28.9062 174.312 29.599 172.781 30.9844C171.25 32.3333 170.484 33.8646 170.484 35.5781C170.484 37.4375 171.141 38.8411 172.453 39.7891C173.766 40.737 175.388 41.5026 177.32 42.0859C179.253 42.6328 181.349 43.1432 183.609 43.6172C185.906 44.0911 188.021 44.8203 189.953 45.8047C191.922 46.7526 193.544 48.1562 194.82 50.0156C196.133 51.8385 196.789 54.3177 196.789 57.4531ZM249.398 72H242.672L225.828 21.5781H234.797L246.555 57.4531L257.766 21.5781H263.398L274.555 57.4531L286.312 21.5781H295.281L278.492 72H271.766L260.555 36.1797L249.398 72ZM308.68 46.7891C308.68 49.487 309.081 51.9479 309.883 54.1719C310.721 56.3594 311.852 58.237 313.273 59.8047C314.695 61.3724 316.318 62.5938 318.141 63.4688C320 64.3073 321.896 64.7266 323.828 64.7266C325.76 64.7266 327.638 64.3073 329.461 63.4688C331.284 62.5938 332.888 61.3724 334.273 59.8047C335.659 58.237 336.771 56.3594 337.609 54.1719C338.484 51.9479 338.922 49.487 338.922 46.7891C338.922 44.0911 338.484 41.6484 337.609 39.4609C336.771 37.2734 335.659 35.3958 334.273 33.8281C332.888 32.2604 331.284 31.0573 329.461 30.2188C327.638 29.3438 325.76 28.9062 323.828 28.9062C321.896 28.9062 320 29.3438 318.141 30.2188C316.318 31.0573 314.695 32.2604 313.273 33.8281C311.852 35.3958 310.721 37.2734 309.883 39.4609C309.081 41.6484 308.68 44.0911 308.68 46.7891ZM347.344 46.7891C347.344 50.5807 346.724 54.0625 345.484 57.2344C344.245 60.3698 342.568 63.0859 340.453 65.3828C338.339 67.6432 335.841 69.4115 332.961 70.6875C330.081 71.9271 327.036 72.5469 323.828 72.5469C320.62 72.5469 317.576 71.9271 314.695 70.6875C311.815 69.4115 309.299 67.6432 307.148 65.3828C305.034 63.0859 303.357 60.3698 302.117 57.2344C300.914 54.099 300.312 50.6172 300.312 46.7891C300.312 42.9974 300.914 39.5339 302.117 36.3984C303.357 33.263 305.034 30.5651 307.148 28.3047C309.299 26.0078 311.815 24.2214 314.695 22.9453C317.576 21.6693 320.62 21.0312 323.828 21.0312C327.036 21.0312 330.081 21.6693 332.961 22.9453C335.841 24.2214 338.339 26.0078 340.453 28.3047C342.568 30.5651 344.245 33.263 345.484 36.3984C346.724 39.5339 347.344 42.9974 347.344 46.7891ZM382.617 29.4531H380.375C376.401 29.4531 373.174 30.7292 370.695 33.2812C368.216 35.7969 366.977 39.1875 366.977 43.4531V72H358.555V21.5781H364.734L366.977 27.2109C368.034 26.0807 369.255 25.0781 370.641 24.2031C371.917 23.3646 373.448 22.6354 375.234 22.0156C377.021 21.3594 379.117 21.0312 381.523 21.0312H382.617V29.4531ZM401.102 72H392.68V1.45312H401.102V72ZM422.375 72L401.102 45.6953L420.133 21.5781H429.648L410.617 45.0938L432.438 72H422.375ZM10.3047 120.18H17.5781V133.578H28.7891V141.453H17.5781V167.758C17.5781 170.602 18.3438 172.807 19.875 174.375C21.4062 175.943 23.4479 176.727 26 176.727C26.7292 176.727 27.4036 176.654 28.0234 176.508C28.3151 176.435 28.5703 176.326 28.7891 176.18V183.453C28.4245 183.672 28.0234 183.854 27.5859 184C26.6016 184.365 25.3255 184.547 23.7578 184.547C21.8255 184.547 19.9844 184.146 18.2344 183.344C16.4844 182.505 14.9349 181.357 13.5859 179.898C12.237 178.44 11.1615 176.69 10.3594 174.648C9.59375 172.607 9.21094 170.31 9.21094 167.758V141.453H0.242188V133.578H4.17969C8.29948 133.578 10.3411 131.536 10.3047 127.453V120.18ZM45.0859 158.789C45.0859 161.487 45.487 163.948 46.2891 166.172C47.1276 168.359 48.2578 170.237 49.6797 171.805C51.1016 173.372 52.724 174.594 54.5469 175.469C56.4062 176.307 58.3021 176.727 60.2344 176.727C62.1667 176.727 64.0443 176.307 65.8672 175.469C67.6901 174.594 69.2943 173.372 70.6797 171.805C72.0651 170.237 73.1771 168.359 74.0156 166.172C74.8906 163.948 75.3281 161.487 75.3281 158.789C75.3281 156.091 74.8906 153.648 74.0156 151.461C73.1771 149.273 72.0651 147.396 70.6797 145.828C69.2943 144.26 67.6901 143.057 65.8672 142.219C64.0443 141.344 62.1667 140.906 60.2344 140.906C58.3021 140.906 56.4062 141.344 54.5469 142.219C52.724 143.057 51.1016 144.26 49.6797 145.828C48.2578 147.396 47.1276 149.273 46.2891 151.461C45.487 153.648 45.0859 156.091 45.0859 158.789ZM83.75 158.789C83.75 162.581 83.1302 166.062 81.8906 169.234C80.651 172.37 78.974 175.086 76.8594 177.383C74.7448 179.643 72.2474 181.411 69.3672 182.688C66.487 183.927 63.4427 184.547 60.2344 184.547C57.026 184.547 53.9818 183.927 51.1016 182.688C48.2214 181.411 45.7057 179.643 43.5547 177.383C41.4401 175.086 39.763 172.37 38.5234 169.234C37.3203 166.099 36.7188 162.617 36.7188 158.789C36.7188 154.997 37.3203 151.534 38.5234 148.398C39.763 145.263 41.4401 142.565 43.5547 140.305C45.7057 138.008 48.2214 136.221 51.1016 134.945C53.9818 133.669 57.026 133.031 60.2344 133.031C63.4427 133.031 66.487 133.669 69.3672 134.945C72.2474 136.221 74.7448 138.008 76.8594 140.305C78.974 142.565 80.651 145.263 81.8906 148.398C83.1302 151.534 83.75 154.997 83.75 158.789ZM129.141 175.578C128.156 176.854 126.99 177.984 125.641 178.969C124.438 179.807 122.924 180.573 121.102 181.266C119.279 181.958 117.109 182.305 114.594 182.305C111.385 182.305 108.378 181.721 105.57 180.555C102.763 179.352 100.32 177.674 98.2422 175.523C96.2005 173.336 94.5781 170.729 93.375 167.703C92.2083 164.677 91.625 161.341 91.625 157.695C91.625 154.049 92.2083 150.714 93.375 147.688C94.5781 144.625 96.2005 142.018 98.2422 139.867C100.32 137.716 102.745 136.039 105.516 134.836C108.323 133.633 111.349 133.031 114.594 133.031C117.146 133.031 119.333 133.359 121.156 134.016C122.979 134.635 124.474 135.365 125.641 136.203C126.99 137.115 128.156 138.117 129.141 139.211L131.383 133.578H137.508V182.305C137.508 185.221 136.961 187.938 135.867 190.453C134.81 193.005 133.297 195.211 131.328 197.07C129.396 198.966 127.044 200.424 124.273 201.445C121.539 202.503 118.495 203.031 115.141 203.031C112.224 203.031 109.599 202.63 107.266 201.828C104.969 201.062 102.964 199.987 101.25 198.602C99.5365 197.216 98.0964 195.612 96.9297 193.789C95.763 191.966 94.9245 190.016 94.4141 187.938H102.781C103.62 189.87 104.969 191.565 106.828 193.023C108.688 194.482 111.458 195.211 115.141 195.211C119.406 195.211 122.797 193.971 125.312 191.492C127.865 189.049 129.141 185.987 129.141 182.305V175.578ZM99.9922 157.695C99.9922 160.247 100.375 162.544 101.141 164.586C101.943 166.628 103.036 168.378 104.422 169.836C105.807 171.294 107.411 172.443 109.234 173.281C111.057 174.083 113.026 174.484 115.141 174.484C117.219 174.484 119.169 174.083 120.992 173.281C122.815 172.443 124.419 171.294 125.805 169.836C127.19 168.378 128.266 166.628 129.031 164.586C129.833 162.508 130.234 160.211 130.234 157.695C130.234 155.143 129.833 152.846 129.031 150.805C128.266 148.727 127.19 146.977 125.805 145.555C124.419 144.096 122.815 142.966 120.992 142.164C119.169 141.326 117.219 140.906 115.141 140.906C113.062 140.906 111.094 141.326 109.234 142.164C107.411 142.966 105.807 144.096 104.422 145.555C103.036 146.977 101.943 148.727 101.141 150.805C100.375 152.846 99.9922 155.143 99.9922 157.695ZM192.414 170.547C191.576 172.333 190.518 174.102 189.242 175.852C187.966 177.565 186.471 179.06 184.758 180.336C183.044 181.576 181.094 182.596 178.906 183.398C176.755 184.164 174.349 184.547 171.688 184.547C168.479 184.547 165.435 183.927 162.555 182.688C159.674 181.411 157.159 179.643 155.008 177.383C152.893 175.086 151.216 172.37 149.977 169.234C148.773 166.099 148.172 162.617 148.172 158.789C148.172 154.997 148.773 151.534 149.977 148.398C151.216 145.263 152.875 142.565 154.953 140.305C157.068 138.008 159.529 136.221 162.336 134.945C165.143 133.669 168.078 133.031 171.141 133.031C174.203 133.031 177.083 133.633 179.781 134.836C182.516 136.039 184.885 137.753 186.891 139.977C188.932 142.164 190.536 144.807 191.703 147.906C192.906 151.005 193.508 154.451 193.508 158.242C193.508 158.971 193.471 159.609 193.398 160.156C193.326 160.667 193.253 161.104 193.18 161.469C193.107 161.906 193.034 162.326 192.961 162.727H157.141C157.286 164.513 157.779 166.263 158.617 167.977C159.492 169.69 160.568 171.185 161.844 172.461C163.156 173.737 164.669 174.776 166.383 175.578C168.133 176.344 169.901 176.727 171.688 176.727C173.255 176.727 174.641 176.508 175.844 176.07C177.083 175.596 178.214 175.068 179.234 174.484C180.255 173.901 181.094 173.263 181.75 172.57C182.443 171.841 183.008 171.167 183.445 170.547H192.414ZM171.141 140.906C169.427 140.906 167.786 141.271 166.219 142C164.688 142.729 163.284 143.732 162.008 145.008C160.768 146.284 159.711 147.815 158.836 149.602C157.997 151.388 157.432 153.339 157.141 155.453H184.539C183.956 150.969 182.406 147.432 179.891 144.844C177.411 142.219 174.495 140.906 171.141 140.906ZM209.695 120.18H216.969V133.578H228.18V141.453H216.969V167.758C216.969 170.602 217.734 172.807 219.266 174.375C220.797 175.943 222.839 176.727 225.391 176.727C226.12 176.727 226.794 176.654 227.414 176.508C227.706 176.435 227.961 176.326 228.18 176.18V183.453C227.815 183.672 227.414 183.854 226.977 184C225.992 184.365 224.716 184.547 223.148 184.547C221.216 184.547 219.375 184.146 217.625 183.344C215.875 182.505 214.326 181.357 212.977 179.898C211.628 178.44 210.552 176.69 209.75 174.648C208.984 172.607 208.602 170.31 208.602 167.758V141.453H199.633V133.578H203.57C207.69 133.578 209.732 131.536 209.695 127.453V120.18ZM264.055 133.031C266.753 133.031 269.268 133.578 271.602 134.672C273.971 135.766 276.049 137.26 277.836 139.156C279.622 141.052 281.044 143.349 282.102 146.047C283.159 148.708 283.688 151.661 283.688 154.906V184H275.266V154.906C275.266 152.828 274.919 150.932 274.227 149.219C273.57 147.469 272.677 145.974 271.547 144.734C270.453 143.495 269.159 142.547 267.664 141.891C266.169 141.234 264.602 140.906 262.961 140.906C258.987 140.906 255.742 142.182 253.227 144.734C250.747 147.25 249.508 150.641 249.508 154.906V184H241.086V113.453H249.508V139.758C250.565 138.482 251.805 137.37 253.227 136.422C254.503 135.583 256.016 134.818 257.766 134.125C259.552 133.396 261.648 133.031 264.055 133.031ZM338.539 170.547C337.701 172.333 336.643 174.102 335.367 175.852C334.091 177.565 332.596 179.06 330.883 180.336C329.169 181.576 327.219 182.596 325.031 183.398C322.88 184.164 320.474 184.547 317.812 184.547C314.604 184.547 311.56 183.927 308.68 182.688C305.799 181.411 303.284 179.643 301.133 177.383C299.018 175.086 297.341 172.37 296.102 169.234C294.898 166.099 294.297 162.617 294.297 158.789C294.297 154.997 294.898 151.534 296.102 148.398C297.341 145.263 299 142.565 301.078 140.305C303.193 138.008 305.654 136.221 308.461 134.945C311.268 133.669 314.203 133.031 317.266 133.031C320.328 133.031 323.208 133.633 325.906 134.836C328.641 136.039 331.01 137.753 333.016 139.977C335.057 142.164 336.661 144.807 337.828 147.906C339.031 151.005 339.633 154.451 339.633 158.242C339.633 158.971 339.596 159.609 339.523 160.156C339.451 160.667 339.378 161.104 339.305 161.469C339.232 161.906 339.159 162.326 339.086 162.727H303.266C303.411 164.513 303.904 166.263 304.742 167.977C305.617 169.69 306.693 171.185 307.969 172.461C309.281 173.737 310.794 174.776 312.508 175.578C314.258 176.344 316.026 176.727 317.812 176.727C319.38 176.727 320.766 176.508 321.969 176.07C323.208 175.596 324.339 175.068 325.359 174.484C326.38 173.901 327.219 173.263 327.875 172.57C328.568 171.841 329.133 171.167 329.57 170.547H338.539ZM317.266 140.906C315.552 140.906 313.911 141.271 312.344 142C310.812 142.729 309.409 143.732 308.133 145.008C306.893 146.284 305.836 147.815 304.961 149.602C304.122 151.388 303.557 153.339 303.266 155.453H330.664C330.081 150.969 328.531 147.432 326.016 144.844C323.536 142.219 320.62 140.906 317.266 140.906ZM374.852 141.453H372.609C368.635 141.453 365.409 142.729 362.93 145.281C360.451 147.797 359.211 151.188 359.211 155.453V184H350.789V133.578H356.969L359.211 139.211C360.268 138.081 361.49 137.078 362.875 136.203C364.151 135.365 365.682 134.635 367.469 134.016C369.255 133.359 371.352 133.031 373.758 133.031H374.852V141.453Z" fill="#101010"/>
</svg> 