<svg width="435" height="204" viewBox="0 0 435 204" fill="none" xmlns="http://www.w3.org/2000/svg">
<path d="M51.5156 64.1797V72H8.96875V1.45312H17.9375V64.1797H51.5156ZM99.6953 58.5469C98.8568 60.3333 97.7995 62.1016 96.5234 63.8516C95.2474 65.5651 93.7526 67.0599 92.0391 68.3359C90.3255 69.5755 88.375 70.5964 86.1875 71.3984C84.0365 72.1641 81.6302 72.5469 78.9688 72.5469C75.7604 72.5469 72.7161 71.9271 69.8359 70.6875C66.9557 69.4115 64.4401 67.6432 62.2891 65.3828C60.1745 63.0859 58.4974 60.3698 57.2578 57.2344C56.0547 54.099 55.4531 50.6172 55.4531 46.7891C55.4531 42.9974 56.0547 39.5339 57.2578 36.3984C58.4974 33.263 60.1562 30.5651 62.2344 28.3047C64.349 26.0078 66.8099 24.2214 69.6172 22.9453C72.4245 21.6693 75.3594 21.0312 78.4219 21.0312C81.4844 21.0312 84.3646 21.6328 87.0625 22.8359C89.7969 24.0391 92.1667 25.7526 94.1719 27.9766C96.2135 30.1641 97.8177 32.8073 98.9844 35.9062C100.188 39.0052 100.789 42.4505 100.789 46.2422C100.789 46.9714 100.753 47.6094 100.68 48.1562C100.607 48.6667 100.534 49.1042 100.461 49.4688C100.388 49.9062 100.315 50.3255 100.242 50.7266H64.4219C64.5677 52.513 65.0599 54.263 65.8984 55.9766C66.7734 57.6901 67.849 59.1849 69.125 60.4609C70.4375 61.737 71.9505 62.776 73.6641 63.5781C75.4141 64.3438 77.1823 64.7266 78.9688 64.7266C80.5365 64.7266 81.9219 64.5078 83.125 64.0703C84.3646 63.5964 85.4948 63.0677 86.5156 62.4844C87.5365 61.901 88.375 61.263 89.0312 60.5703C89.724 59.8411 90.2891 59.1667 90.7266 58.5469H99.6953ZM78.4219 28.9062C76.7083 28.9062 75.0677 29.2708 73.5 30C71.9688 30.7292 70.5651 31.7318 69.2891 33.0078C68.0495 34.2839 66.9922 35.8151 66.1172 37.6016C65.2786 39.388 64.7135 41.3385 64.4219 43.4531H91.8203C91.237 38.9688 89.6875 35.4323 87.1719 32.8438C84.6927 30.2188 81.776 28.9062 78.4219 28.9062ZM116.977 8.17969H124.25V21.5781H135.461V29.4531H124.25V55.7578C124.25 58.6016 125.016 60.8073 126.547 62.375C128.078 63.9427 130.12 64.7266 132.672 64.7266C133.401 64.7266 134.076 64.6536 134.695 64.5078C134.987 64.4349 135.242 64.3255 135.461 64.1797V71.4531C135.096 71.6719 134.695 71.8542 134.258 72C133.273 72.3646 131.997 72.5469 130.43 72.5469C128.497 72.5469 126.656 72.1458 124.906 71.3438C123.156 70.5052 121.607 69.3568 120.258 67.8984C118.909 66.4401 117.833 64.6901 117.031 62.6484C116.266 60.6068 115.883 58.3099 115.883 55.7578V29.4531H106.914V21.5781H110.852C114.971 21.5781 117.013 19.5365 116.977 15.4531V8.17969ZM150.062 12.0625C148.349 12.0625 146.982 11.5703 145.961 10.5859C144.977 9.5651 144.484 8.19792 144.484 6.48438C144.484 4.77083 144.977 3.42188 145.961 2.4375C146.982 1.41667 148.349 0.90625 150.062 0.90625C151.776 0.90625 153.125 1.41667 154.109 2.4375C155.13 3.42188 155.641 4.77083 155.641 6.48438C155.641 9.18229 155.167 11.5156 154.219 13.4844C153.307 15.4531 152.305 17.0755 151.211 18.3516C149.862 19.8464 148.367 21.1224 146.727 22.1797L145.578 20.4844C146.307 19.7552 146.982 18.9714 147.602 18.1328C148.112 17.4036 148.604 16.5286 149.078 15.5078C149.589 14.487 149.917 13.3385 150.062 12.0625ZM198.789 57.4531C198.789 59.5312 198.37 61.4818 197.531 63.3047C196.729 65.1276 195.581 66.7318 194.086 68.1172C192.591 69.5026 190.786 70.5964 188.672 71.3984C186.557 72.1641 184.151 72.5469 181.453 72.5469C175.839 72.5469 171.427 71.0521 168.219 68.0625C165.01 65.0729 163.26 61.3542 162.969 56.9062H171.391C171.682 59.1302 172.648 60.9896 174.289 62.4844C175.93 63.9792 178.318 64.7266 181.453 64.7266C184.297 64.7266 186.503 63.9974 188.07 62.5391C189.638 61.0807 190.422 59.3854 190.422 57.4531C190.422 55.5938 189.766 54.1901 188.453 53.2422C187.141 52.2943 185.518 51.5469 183.586 51C181.654 50.4531 179.539 49.9427 177.242 49.4688C174.982 48.9583 172.867 48.2292 170.898 47.2812C168.966 46.2969 167.344 44.9115 166.031 43.125C164.719 41.3021 164.062 38.7865 164.062 35.5781C164.062 33.6458 164.464 31.8047 165.266 30.0547C166.104 28.3047 167.253 26.7552 168.711 25.4062C170.169 24.0573 171.919 23 173.961 22.2344C176.039 21.4323 178.354 21.0312 180.906 21.0312C186.266 21.0312 190.422 22.4349 193.375 25.2422C196.328 28.0495 197.951 31.6953 198.242 36.1797H189.82C189.529 33.9557 188.672 32.1875 187.25 30.875C185.828 29.5625 183.714 28.9062 180.906 28.9062C178.354 28.9062 176.312 29.599 174.781 30.9844C173.25 32.3333 172.484 33.8646 172.484 35.5781C172.484 37.4375 173.141 38.8411 174.453 39.7891C175.766 40.737 177.388 41.5026 179.32 42.0859C181.253 42.6328 183.349 43.1432 185.609 43.6172C187.906 44.0911 190.021 44.8203 191.953 45.8047C193.922 46.7526 195.544 48.1562 196.82 50.0156C198.133 51.8385 198.789 54.3177 198.789 57.4531ZM251.398 72H244.672L227.828 21.5781H236.797L248.555 57.4531L259.766 21.5781H265.398L276.555 57.4531L288.312 21.5781H297.281L280.492 72H273.766L262.555 36.1797L251.398 72ZM310.68 46.7891C310.68 49.487 311.081 51.9479 311.883 54.1719C312.721 56.3594 313.852 58.237 315.273 59.8047C316.695 61.3724 318.318 62.5938 320.141 63.4688C322 64.3073 323.896 64.7266 325.828 64.7266C327.76 64.7266 329.638 64.3073 331.461 63.4688C333.284 62.5938 334.888 61.3724 336.273 59.8047C337.659 58.237 338.771 56.3594 339.609 54.1719C340.484 51.9479 340.922 49.487 340.922 46.7891C340.922 44.0911 340.484 41.6484 339.609 39.4609C338.771 37.2734 337.659 35.3958 336.273 33.8281C334.888 32.2604 333.284 31.0573 331.461 30.2188C329.638 29.3438 327.76 28.9062 325.828 28.9062C323.896 28.9062 322 29.3438 320.141 30.2188C318.318 31.0573 316.695 32.2604 315.273 33.8281C313.852 35.3958 312.721 37.2734 311.883 39.4609C311.081 41.6484 310.68 44.0911 310.68 46.7891ZM349.344 46.7891C349.344 50.5807 348.724 54.0625 347.484 57.2344C346.245 60.3698 344.568 63.0859 342.453 65.3828C340.339 67.6432 337.841 69.4115 334.961 70.6875C332.081 71.9271 329.036 72.5469 325.828 72.5469C322.62 72.5469 319.576 71.9271 316.695 70.6875C313.815 69.4115 311.299 67.6432 309.148 65.3828C307.034 63.0859 305.357 60.3698 304.117 57.2344C302.914 54.099 302.312 50.6172 302.312 46.7891C302.312 42.9974 302.914 39.5339 304.117 36.3984C305.357 33.263 307.034 30.5651 309.148 28.3047C311.299 26.0078 313.815 24.2214 316.695 22.9453C319.576 21.6693 322.62 21.0312 325.828 21.0312C329.036 21.0312 332.081 21.6693 334.961 22.9453C337.841 24.2214 340.339 26.0078 342.453 28.3047C344.568 30.5651 346.245 33.263 347.484 36.3984C348.724 39.5339 349.344 42.9974 349.344 46.7891ZM384.617 29.4531H382.375C378.401 29.4531 375.174 30.7292 372.695 33.2812C370.216 35.7969 368.977 39.1875 368.977 43.4531V72H360.555V21.5781H366.734L368.977 27.2109C370.034 26.0807 371.255 25.0781 372.641 24.2031C373.917 23.3646 375.448 22.6354 377.234 22.0156C379.021 21.3594 381.117 21.0312 383.523 21.0312H384.617V29.4531ZM403.102 72H394.68V1.45312H403.102V72ZM424.375 72L403.102 45.6953L422.133 21.5781H431.648L412.617 45.0938L434.438 72H424.375ZM12.3047 120.18H19.5781V133.578H30.7891V141.453H19.5781V167.758C19.5781 170.602 20.3438 172.807 21.875 174.375C23.4062 175.943 25.4479 176.727 28 176.727C28.7292 176.727 29.4036 176.654 30.0234 176.508C30.3151 176.435 30.5703 176.326 30.7891 176.18V183.453C30.4245 183.672 30.0234 183.854 29.5859 184C28.6016 184.365 27.3255 184.547 25.7578 184.547C23.8255 184.547 21.9844 184.146 20.2344 183.344C18.4844 182.505 16.9349 181.357 15.5859 179.898C14.237 178.44 13.1615 176.69 12.3594 174.648C11.5938 172.607 11.2109 170.31 11.2109 167.758V141.453H2.24219V133.578H6.17969C10.2995 133.578 12.3411 131.536 12.3047 127.453V120.18ZM47.0859 158.789C47.0859 161.487 47.487 163.948 48.2891 166.172C49.1276 168.359 50.2578 170.237 51.6797 171.805C53.1016 173.372 54.724 174.594 56.5469 175.469C58.4062 176.307 60.3021 176.727 62.2344 176.727C64.1667 176.727 66.0443 176.307 67.8672 175.469C69.6901 174.594 71.2943 173.372 72.6797 171.805C74.0651 170.237 75.1771 168.359 76.0156 166.172C76.8906 163.948 77.3281 161.487 77.3281 158.789C77.3281 156.091 76.8906 153.648 76.0156 151.461C75.1771 149.273 74.0651 147.396 72.6797 145.828C71.2943 144.26 69.6901 143.057 67.8672 142.219C66.0443 141.344 64.1667 140.906 62.2344 140.906C60.3021 140.906 58.4062 141.344 56.5469 142.219C54.724 143.057 53.1016 144.26 51.6797 145.828C50.2578 147.396 49.1276 149.273 48.2891 151.461C47.487 153.648 47.0859 156.091 47.0859 158.789ZM85.75 158.789C85.75 162.581 85.1302 166.062 83.8906 169.234C82.651 172.37 80.974 175.086 78.8594 177.383C76.7448 179.643 74.2474 181.411 71.3672 182.688C68.487 183.927 65.4427 184.547 62.2344 184.547C59.026 184.547 55.9818 183.927 53.1016 182.688C50.2214 181.411 47.7057 179.643 45.5547 177.383C43.4401 175.086 41.763 172.37 40.5234 169.234C39.3203 166.099 38.7188 162.617 38.7188 158.789C38.7188 154.997 39.3203 151.534 40.5234 148.398C41.763 145.263 43.4401 142.565 45.5547 140.305C47.7057 138.008 50.2214 136.221 53.1016 134.945C55.9818 133.669 59.026 133.031 62.2344 133.031C65.4427 133.031 68.487 133.669 71.3672 134.945C74.2474 136.221 76.7448 138.008 78.8594 140.305C80.974 142.565 82.651 145.263 83.8906 148.398C85.1302 151.534 85.75 154.997 85.75 158.789ZM131.141 175.578C130.156 176.854 128.99 177.984 127.641 178.969C126.438 179.807 124.924 180.573 123.102 181.266C121.279 181.958 119.109 182.305 116.594 182.305C113.385 182.305 110.378 181.721 107.57 180.555C104.763 179.352 102.32 177.674 100.242 175.523C98.2005 173.336 96.5781 170.729 95.375 167.703C94.2083 164.677 93.625 161.341 93.625 157.695C93.625 154.049 94.2083 150.714 95.375 147.688C96.5781 144.625 98.2005 142.018 100.242 139.867C102.32 137.716 104.745 136.039 107.516 134.836C110.323 133.633 113.349 133.031 116.594 133.031C119.146 133.031 121.333 133.359 123.156 134.016C124.979 134.635 126.474 135.365 127.641 136.203C128.99 137.115 130.156 138.117 131.141 139.211L133.383 133.578H139.508V182.305C139.508 185.221 138.961 187.938 137.867 190.453C136.81 193.005 135.297 195.211 133.328 197.07C131.396 198.966 129.044 200.424 126.273 201.445C123.539 202.503 120.495 203.031 117.141 203.031C114.224 203.031 111.599 202.63 109.266 201.828C106.969 201.062 104.964 199.987 103.25 198.602C101.536 197.216 100.096 195.612 98.9297 193.789C97.763 191.966 96.9245 190.016 96.4141 187.938H104.781C105.62 189.87 106.969 191.565 108.828 193.023C110.688 194.482 113.458 195.211 117.141 195.211C121.406 195.211 124.797 193.971 127.312 191.492C129.865 189.049 131.141 185.987 131.141 182.305V175.578ZM101.992 157.695C101.992 160.247 102.375 162.544 103.141 164.586C103.943 166.628 105.036 168.378 106.422 169.836C107.807 171.294 109.411 172.443 111.234 173.281C113.057 174.083 115.026 174.484 117.141 174.484C119.219 174.484 121.169 174.083 122.992 173.281C124.815 172.443 126.419 171.294 127.805 169.836C129.19 168.378 130.266 166.628 131.031 164.586C131.833 162.508 132.234 160.211 132.234 157.695C132.234 155.143 131.833 152.846 131.031 150.805C130.266 148.727 129.19 146.977 127.805 145.555C126.419 144.096 124.815 142.966 122.992 142.164C121.169 141.326 119.219 140.906 117.141 140.906C115.062 140.906 113.094 141.326 111.234 142.164C109.411 142.966 107.807 144.096 106.422 145.555C105.036 146.977 103.943 148.727 103.141 150.805C102.375 152.846 101.992 155.143 101.992 157.695ZM194.414 170.547C193.576 172.333 192.518 174.102 191.242 175.852C189.966 177.565 188.471 179.06 186.758 180.336C185.044 181.576 183.094 182.596 180.906 183.398C178.755 184.164 176.349 184.547 173.688 184.547C170.479 184.547 167.435 183.927 164.555 182.688C161.674 181.411 159.159 179.643 157.008 177.383C154.893 175.086 153.216 172.37 151.977 169.234C150.773 166.099 150.172 162.617 150.172 158.789C150.172 154.997 150.773 151.534 151.977 148.398C153.216 145.263 154.875 142.565 156.953 140.305C159.068 138.008 161.529 136.221 164.336 134.945C167.143 133.669 170.078 133.031 173.141 133.031C176.203 133.031 179.083 133.633 181.781 134.836C184.516 136.039 186.885 137.753 188.891 139.977C190.932 142.164 192.536 144.807 193.703 147.906C194.906 151.005 195.508 154.451 195.508 158.242C195.508 158.971 195.471 159.609 195.398 160.156C195.326 160.667 195.253 161.104 195.18 161.469C195.107 161.906 195.034 162.326 194.961 162.727H159.141C159.286 164.513 159.779 166.263 160.617 167.977C161.492 169.69 162.568 171.185 163.844 172.461C165.156 173.737 166.669 174.776 168.383 175.578C170.133 176.344 171.901 176.727 173.688 176.727C175.255 176.727 176.641 176.508 177.844 176.07C179.083 175.596 180.214 175.068 181.234 174.484C182.255 173.901 183.094 173.263 183.75 172.57C184.443 171.841 185.008 171.167 185.445 170.547H194.414ZM173.141 140.906C171.427 140.906 169.786 141.271 168.219 142C166.688 142.729 165.284 143.732 164.008 145.008C162.768 146.284 161.711 147.815 160.836 149.602C159.997 151.388 159.432 153.339 159.141 155.453H186.539C185.956 150.969 184.406 147.432 181.891 144.844C179.411 142.219 176.495 140.906 173.141 140.906ZM211.695 120.18H218.969V133.578H230.18V141.453H218.969V167.758C218.969 170.602 219.734 172.807 221.266 174.375C222.797 175.943 224.839 176.727 227.391 176.727C228.12 176.727 228.794 176.654 229.414 176.508C229.706 176.435 229.961 176.326 230.18 176.18V183.453C229.815 183.672 229.414 183.854 228.977 184C227.992 184.365 226.716 184.547 225.148 184.547C223.216 184.547 221.375 184.146 219.625 183.344C217.875 182.505 216.326 181.357 214.977 179.898C213.628 178.44 212.552 176.69 211.75 174.648C210.984 172.607 210.602 170.31 210.602 167.758V141.453H201.633V133.578H205.57C209.69 133.578 211.732 131.536 211.695 127.453V120.18ZM266.055 133.031C268.753 133.031 271.268 133.578 273.602 134.672C275.971 135.766 278.049 137.26 279.836 139.156C281.622 141.052 283.044 143.349 284.102 146.047C285.159 148.708 285.688 151.661 285.688 154.906V184H277.266V154.906C277.266 152.828 276.919 150.932 276.227 149.219C275.57 147.469 274.677 145.974 273.547 144.734C272.453 143.495 271.159 142.547 269.664 141.891C268.169 141.234 266.602 140.906 264.961 140.906C260.987 140.906 257.742 142.182 255.227 144.734C252.747 147.25 251.508 150.641 251.508 154.906V184H243.086V113.453H251.508V139.758C252.565 138.482 253.805 137.37 255.227 136.422C256.503 135.583 258.016 134.818 259.766 134.125C261.552 133.396 263.648 133.031 266.055 133.031ZM340.539 170.547C339.701 172.333 338.643 174.102 337.367 175.852C336.091 177.565 334.596 179.06 332.883 180.336C331.169 181.576 329.219 182.596 327.031 183.398C324.88 184.164 322.474 184.547 319.812 184.547C316.604 184.547 313.56 183.927 310.68 182.688C307.799 181.411 305.284 179.643 303.133 177.383C301.018 175.086 299.341 172.37 298.102 169.234C296.898 166.099 296.297 162.617 296.297 158.789C296.297 154.997 296.898 151.534 298.102 148.398C299.341 145.263 301 142.565 303.078 140.305C305.193 138.008 307.654 136.221 310.461 134.945C313.268 133.669 316.203 133.031 319.266 133.031C322.328 133.031 325.208 133.633 327.906 134.836C330.641 136.039 333.01 137.753 335.016 139.977C337.057 142.164 338.661 144.807 339.828 147.906C341.031 151.005 341.633 154.451 341.633 158.242C341.633 158.971 341.596 159.609 341.523 160.156C341.451 160.667 341.378 161.104 341.305 161.469C341.232 161.906 341.159 162.326 341.086 162.727H305.266C305.411 164.513 305.904 166.263 306.742 167.977C307.617 169.69 308.693 171.185 309.969 172.461C311.281 173.737 312.794 174.776 314.508 175.578C316.258 176.344 318.026 176.727 319.812 176.727C321.38 176.727 322.766 176.508 323.969 176.07C325.208 175.596 326.339 175.068 327.359 174.484C328.38 173.901 329.219 173.263 329.875 172.57C330.568 171.841 331.133 171.167 331.57 170.547H340.539ZM319.266 140.906C317.552 140.906 315.911 141.271 314.344 142C312.812 142.729 311.409 143.732 310.133 145.008C308.893 146.284 307.836 147.815 306.961 149.602C306.122 151.388 305.557 153.339 305.266 155.453H332.664C332.081 150.969 330.531 147.432 328.016 144.844C325.536 142.219 322.62 140.906 319.266 140.906ZM376.852 141.453H374.609C370.635 141.453 367.409 142.729 364.93 145.281C362.451 147.797 361.211 151.188 361.211 155.453V184H352.789V133.578H358.969L361.211 139.211C362.268 138.081 363.49 137.078 364.875 136.203C366.151 135.365 367.682 134.635 369.469 134.016C371.255 133.359 373.352 133.031 375.758 133.031H376.852V141.453Z" fill="#101010"/>
<line y1="199.5" x2="77" y2="199.5" stroke="#101010"/>
<line x1="160" y1="199.5" x2="373" y2="199.5" stroke="#101010"/>
<line x1="9" y1="87.5" x2="435" y2="87.5" stroke="#101010"/>
</svg>
